Coordinates
version=1
nRows=30
nColumns=21
inDegrees=yes

Units are S.I. units (second, meters, Newtons, ...)
If the header above contains a line with 'inDegrees', this indicates whether rotational values are in degrees (yes) or radians (no).

endheader
time	sternoclavicular_r2	sternoclavicular_r3	unrotscap_r3	unrotscap_r2	acromioclavicular_r2	acromioclavicular_r3	acromioclavicular_r1	unrothum_r1	unrothum_r3	unrothum_r2	elv_angle	shoulder_elev	shoulder1_r2	shoulder_rot	elbow_flexion	pro_sup	deviation	flexion	wrist_hand_r1	wrist_hand_r3
      0.00000000	    -10.03066333	      4.24851556	     -4.24851556	     10.03066333	     -2.03100528	     16.41387029	      7.37792173	     -7.37792173	    -16.41387029	      2.03100528	    117.87525194	     41.44892911	   -117.87525194	     19.95250629	      1.26447097	      0.00000000	      0.00000000	     -0.00000000	     -0.00000000	      0.00000000
      0.02010050	    -10.03093765	      4.24863176	     -4.24863176	     10.03093765	     -2.03106083	     16.41431919	      7.37812351	     -7.37812351	    -16.41431919	      2.03106083	    117.87473241	     41.45006269	   -117.87473241	     19.95204249	      1.26357785	      0.00000000	      0.00000000	     -0.00000000	     -0.00000000	      0.00000000
      0.04020101	    -10.03147937	      4.24886120	     -4.24886120	     10.03147937	     -2.03117052	     16.41520563	      7.37852196	     -7.37852196	    -16.41520563	      2.03117052	    117.87185340	     41.45230117	   -117.87185340	     19.95197580	      1.26017364	      0.00000000	      0.00000000	     -0.00000000	     -0.00000000	      0.00000000
      0.06030151	    -10.02865087	      4.24766318	     -4.24766318	     10.02865087	     -2.03059780	     16.41057716	      7.37644149	     -7.37644149	    -16.41057716	      2.03059780	    117.87544208	     41.44061319	   -117.87544208	     19.95292191	      1.28078648	      0.00000000	      0.00000000	     -0.00000000	     -0.00000000	      0.00000000
      0.08040201	    -10.03116064	      4.24872620	     -4.24872620	     10.03116064	     -2.03110598	     16.41468407	      7.37828752	     -7.37828752	    -16.41468407	      2.03110598	    117.87332408	     41.45098410	   -117.87332408	     19.95201951	      1.26342716	      0.00000000	      0.00000000	     -0.00000000	     -0.00000000	      0.00000000
      0.10050251	    -10.03140464	      4.24882955	     -4.24882955	     10.03140464	     -2.03115539	     16.41508336	      7.37846700	     -7.37846700	    -16.41508336	      2.03115539	    117.87357658	     41.45199240	   -117.87357658	     19.95200686	      1.26368043	      0.00000000	      0.00000000	     -0.00000000	     -0.00000000	      0.00000000
      0.12060302	    -10.03206714	      4.24911015	     -4.24911015	     10.03206714	     -2.03128953	     16.41616744	      7.37895429	     -7.37895429	    -16.41616744	      2.03128953	    117.87236707	     41.45472997	   -117.87236707	     19.95195897	      1.26160911	      0.00000000	      0.00000000	     -0.00000000	     -0.00000000	      0.00000000
      0.14070352	    -10.03226899	      4.24919565	     -4.24919565	     10.03226899	     -2.03133040	     16.41649774	      7.37910275	     -7.37910275	    -16.41649774	      2.03133040	    117.87408693	     41.45556406	   -117.87408693	     19.95197247	      1.26405769	      0.00000000	      0.00000000	     -0.00000000	     -0.00000000	      0.00000000
      0.16080402	    -10.03305108	      4.24952690	     -4.24952690	     10.03305108	     -2.03148876	     16.41777754	      7.37967801	     -7.37967801	    -16.41777754	      2.03148876	    117.87489870	     41.45879585	   -117.87489870	     19.95193265	      1.26345210	      0.00000000	      0.00000000	     -0.00000000	     -0.00000000	      0.00000000
      0.18090452	    -10.03369614	      4.24980012	     -4.24980012	     10.03369614	     -2.03161937	     16.41883309	      7.38015248	     -7.38015248	    -16.41883309	      2.03161937	    117.87641308	     41.46146136	   -117.87641308	     19.95194448	      1.26573171	      0.00000000	      0.00000000	     -0.00000000	     -0.00000000	      0.00000000
      0.20100503	    -10.03504000	      4.25036931	     -4.25036931	     10.03504000	     -2.03189147	     16.42103214	      7.38114093	     -7.38114093	    -16.42103214	      2.03189147	    117.87566240	     41.46701448	   -117.87566240	     19.95227297	      1.26465955	      0.00000000	      0.00000000	     -0.00000000	     -0.00000000	      0.00000000
      0.22110553	    -10.03431613	      4.25006272	     -4.25006272	     10.03431613	     -2.03174490	     16.41984763	      7.38060850	     -7.38060850	    -16.41984763	      2.03174490	    117.88374526	     41.46402331	   -117.88374526	     19.95217282	      1.28066426	      0.00000000	      0.00000000	     -0.00000000	     -0.00000000	      0.00000000
      0.24120603	    -10.03847049	      4.25182231	     -4.25182231	     10.03847049	     -2.03258608	     16.42664569	      7.38366419	     -7.38366419	    -16.42664569	      2.03258608	    117.87695517	     41.48119005	   -117.87695517	     19.95179641	      1.26367342	      0.00000000	      0.00000000	     -0.00000000	     -0.00000000	      0.00000000
      0.26130653	    -10.04051758	      4.25268936	     -4.25268936	     10.04051758	     -2.03300057	     16.42999548	      7.38516989	     -7.38516989	    -16.42999548	      2.03300057	    117.87771513	     41.48964906	   -117.87771513	     19.95207163	      1.26339875	      0.00000000	      0.00000000	     -0.00000000	     -0.00000000	      0.00000000
      0.28140704	    -10.04326758	      4.25385413	     -4.25385413	     10.04326758	     -2.03355739	     16.43449550	      7.38719262	     -7.38719262	    -16.43449550	      2.03355739	    117.87800950	     41.50101268	   -117.87800950	     19.95165365	      1.26259540	      0.00000000	      0.00000000	     -0.00000000	     -0.00000000	      0.00000000
      0.30150754	    -10.04624851	      4.25511671	     -4.25511671	     10.04624851	     -2.03416097	     16.43937340	      7.38938521	     -7.38938521	    -16.43937340	      2.03416097	    117.87850950	     41.51333055	   -117.87850950	     19.95154549	      1.26240101	      0.00000000	      0.00000000	     -0.00000000	     -0.00000000	      0.00000000
      0.32160804	    -10.04965415	      4.25655918	     -4.25655918	     10.04965415	     -2.03485054	     16.44494629	      7.39189018	     -7.39189018	    -16.44494629	      2.03485054	    117.87905826	     41.52740340	   -117.87905826	     19.95141943	      1.26217680	      0.00000000	      0.00000000	     -0.00000000	     -0.00000000	      0.00000000
      0.34170854	    -10.05350354	      4.25818960	     -4.25818960	     10.05350354	     -2.03562996	     16.45124531	      7.39472155	     -7.39472155	    -16.45124531	      2.03562996	    117.87968933	     41.54330994	   -117.87968933	     19.95127831	      1.26194285	      0.00000000	      0.00000000	     -0.00000000	     -0.00000000	      0.00000000
      0.36180905	    -10.05781931	      4.26001756	     -4.26001756	     10.05781931	     -2.03650382	     16.45830751	      7.39789596	     -7.39789596	    -16.45830751	      2.03650382	    117.88040471	     41.56114367	   -117.88040471	     19.95112091	      1.26169535	      0.00000000	      0.00000000	     -0.00000000	     -0.00000000	      0.00000000
      0.38190955	    -10.06262296	      4.26205215	     -4.26205215	     10.06262296	     -2.03747646	     16.46616805	      7.40142921	     -7.40142921	    -16.46616805	      2.03747646	    117.88120927	     41.58099340	   -117.88120927	     19.95094643	      1.26143152	      0.00000000	      0.00000000	     -0.00000000	     -0.00000000	      0.00000000
      0.40201005	    -10.06793531	      4.26430222	     -4.26430222	     10.06793531	     -2.03855210	     16.47486102	      7.40533664	     -7.40533664	    -16.47486102	      2.03855210	    117.88210723	     41.60294522	   -117.88210723	     19.95075401	      1.26114822	      0.00000000	      0.00000000	     -0.00000000	     -0.00000000	      0.00000000
      0.42211055	    -10.07377651	      4.26677627	     -4.26677627	     10.07377651	     -2.03973483	     16.48441938	      7.40963306	     -7.40963306	    -16.48441938	      2.03973483	    117.88310252	     41.62708235	   -117.88310252	     19.95054281	      1.26084202	      0.00000000	      0.00000000	     -0.00000000	     -0.00000000	      0.00000000
      0.44221106	    -10.08016603	      4.26948257	     -4.26948257	     10.08016603	     -2.04102858	     16.49487500	      7.41433279	     -7.41433279	    -16.49487500	      2.04102858	    117.88419868	     41.65348529	   -117.88419868	     19.95031200	      1.26050920	      0.00000000	      0.00000000	     -0.00000000	     -0.00000000	      0.00000000
      0.46231156	    -10.08712272	      4.27242910	     -4.27242910	     10.08712272	     -2.04243716	     16.50625871	      7.41944969	     -7.41944969	    -16.50625871	      2.04243716	    117.88539894	     41.68223186	   -117.88539894	     19.95006075	      1.26014579	      0.00000000	      0.00000000	     -0.00000000	     -0.00000000	      0.00000000
      0.48241206	    -10.09466477	      4.27562356	     -4.27562356	     10.09466477	     -2.04396428	     16.51860029	      7.42499715	     -7.42499715	    -16.51860029	      2.04396428	    117.88670609	     41.71339730	   -117.88670609	     19.94978822	      1.25974753	      0.00000000	      0.00000000	     -0.00000000	     -0.00000000	      0.00000000
      0.50251256	    -10.10282913	      4.27908159	     -4.27908159	     10.10282913	     -2.04561739	     16.53196020	      7.43100234	     -7.43100234	    -16.53196020	      2.04561739	    117.88807541	     41.74713425	   -117.88807541	     19.94989134	      1.25905315	      0.00000000	      0.00000000	     -0.00000000	     -0.00000000	      0.00000000
      0.52261307	    -10.11159463	      4.28279424	     -4.28279424	     10.11159463	     -2.04739223	     16.54630380	      7.43744968	     -7.43744968	    -16.54630380	      2.04739223	    117.88960160	     41.78335524	   -117.88960160	     19.94957928	      1.25856263	      0.00000000	      0.00000000	     -0.00000000	     -0.00000000	      0.00000000
      0.54271357	    -10.12099628	      4.28677634	     -4.28677634	     10.12099628	     -2.04929587	     16.56168836	      7.44436494	     -7.44436494	    -16.56168836	      2.04929587	    117.89124195	     41.82220493	   -117.89124195	     19.94924315	      1.25802735	      0.00000000	      0.00000000	     -0.00000000	     -0.00000000	      0.00000000
      0.56281407	    -10.13105017	      4.29103469	     -4.29103469	     10.13105017	     -2.05133158	     16.57814024	      7.45175994	     -7.45175994	    -16.57814024	      2.05133158	    117.89299652	     41.86374983	   -117.89299652	     19.94888212	      1.25743712	      0.00000000	      0.00000000	     -0.00000000	     -0.00000000	      0.00000000
      0.58291457	    -10.14177161	      4.29557579	     -4.29557579	     10.14177161	     -2.05350245	     16.59568448	      7.45964596	     -7.45964596	    -16.59568448	      2.05350245	    117.89486596	     41.90805321	   -117.89486596	     19.94849538	      1.25678576	      0.00000000	      0.00000000	     -0.00000000	     -0.00000000	      0.00000000
